<?xml version="1.0" encoding="UTF-8"?>
<svg xmlns="http://www.w3.org/2000/svg" onmouseup="{ if(window.parent.document.onmouseup) window.parent.document.onmouseup(arguments[0]);}" width="36" viewBox="0 0 36 36" id="S_Briefcase_18_N_2x" height="36" data-name="S_Briefcase_18_N@2x"><defs><style>
      .fill {
        fill: #707070;
      }

      
    </style></defs><path data-cppathid="10000" d="M20,18v3.287a.75.75,0,0,1-.75.75L16.75,22a.75.75,0,0,1-.75-.75V18H0V31a1,1,0,0,0,1,1H35a1,1,0,0,0,1-1V18Z" class="fill"/><path data-cppathid="10001" d="M35,10H26V6a2,2,0,0,0-2-2H12a2,2,0,0,0-2,2v4H1a1,1,0,0,0-1,1v5H16V14.639a.75.75,0,0,1,.75-.75l2.5.037a.75.75,0,0,1,.75.75V16H36V11A1,1,0,0,0,35,10ZM13,7H23v3H13Z" class="fill"/></svg>